<?xml version="1.0" encoding="UTF-8"?>
<svg width="457px" height="125px" viewBox="0 0 457 125" version="1.1" xmlns="http://www.w3.org/2000/svg" xmlns:xlink="http://www.w3.org/1999/xlink">
    <title>3179D8CF-2978-4516-ACEF-B0A46227D0A7</title>
    <g id="Versión-4" stroke="none" stroke-width="1" fill="none" fill-rule="evenodd">
        <g id="V3_04" transform="translate(-492.000000, -370.000000)">
            <g id="popup" transform="translate(480.000000, 112.000000)">
                <g id="fondo-banner" transform="translate(12.000000, 276.000000)">
                    <rect id="Mask" fill="#F8C8DA" x="0" y="0" width="457" height="90" rx="2"></rect>
                    <g id="Group" transform="translate(333.000000, -18.000000)">
                        <g id="reviewer-ico" transform="translate(0.000000, 6.780000)" fill="#5B305B">
                            <circle id="mask" cx="56.5" cy="56.5" r="56.5"></circle>
                        </g>
                        <g id="Group-10" transform="translate(20.340000, 0.000000)">
                            <polygon id="Fill-1" fill="#F4B2CB" points="33.7526358 0.00066272973 27.5769415 33.3425954 41.1619542 52.6857827 62.1543917 58.0396922 55.5696985 19.3466903"></polygon>
                            <polygon id="Fill-2" fill="#F4B2CB" points="0 58.2685233 14.611297 103.217694 30.0472192 98.7187057 11.9357624 52.4582771"></polygon>
                            <polygon id="Fill-3" fill="#F9DBE7" points="33.7526358 0.00066272973 -0.000189351351 58.2688073 11.9355731 52.6857827 27.5769415 33.3425954"></polygon>
                            <polygon id="Fill-4" fill="#E79BC1" points="41.1622382 52.6853094 62.1546758 58.0401656 60.9825909 103.217504 30.0463671 98.7185164"></polygon>
                            <polygon id="Fill-5" fill="#CB8BB7" points="62.1542024 58.0401656 60.9821175 103.217504 66.2707008 85.2082975 70.0397394 51.0417396"></polygon>
                            <polygon id="Fill-6" fill="#C082AD" points="32.5162661 123.899216 60.9814548 103.217315 30.0471245 98.718327"></polygon>
                            <polygon id="Fill-7" fill="#986799" points="62.1542024 58.0401656 70.0397394 51.0417396 55.5695091 19.3462169"></polygon>
                            <polygon id="Fill-8" fill="#E79BC1" points="14.6114864 103.217504 32.5165502 123.899406 30.0464618 98.7185164"></polygon>
                            <polygon id="Fill-9" fill="#F7C8D9" points="27.5770361 33.3429741 41.1620488 52.6852147 30.0461778 98.7184217 11.9356678 52.6852147"></polygon>
                        </g>
                    </g>
                </g>
            </g>
        </g>
    </g>
</svg>